<svg width="44" height="44" viewBox="0 0 44 44" fill="none" xmlns="http://www.w3.org/2000/svg">
<path fill-rule="evenodd" clip-rule="evenodd" d="M6.46253 0.723927C6.38743 0.512167 6.24858 0.328869 6.06507 0.199235C5.88155 0.0696019 5.66238 0 5.43769 0C5.213 0 4.99382 0.0696019 4.81031 0.199235C4.62679 0.328869 4.48794 0.512167 4.41285 0.723927L3.62179 2.96108C3.56769 3.11334 3.48032 3.25164 3.36606 3.3659C3.25179 3.48016 3.11349 3.56752 2.96121 3.62162L0.723961 4.41264C0.512191 4.48773 0.328884 4.62657 0.199245 4.81008C0.0696052 4.99359 0 5.21275 0 5.43743C0 5.66211 0.0696052 5.88127 0.199245 6.06478C0.328884 6.24829 0.512191 6.38714 0.723961 6.46223L2.96121 7.25325C3.11349 7.30735 3.25179 7.3947 3.36606 7.50897C3.48032 7.62323 3.56769 7.76152 3.62179 7.91379L4.41285 10.1509C4.48794 10.3627 4.62679 10.546 4.81031 10.6756C4.99382 10.8053 5.213 10.8749 5.43769 10.8749C5.66238 10.8749 5.88155 10.8053 6.06507 10.6756C6.24858 10.546 6.38743 10.3627 6.46253 10.1509L7.25358 7.91379C7.30769 7.76152 7.39505 7.62323 7.50932 7.50897C7.62358 7.3947 7.76189 7.30735 7.91416 7.25325L10.1514 6.46223C10.3632 6.38714 10.5465 6.24829 10.6761 6.06478C10.8058 5.88127 10.8754 5.66211 10.8754 5.43743C10.8754 5.21275 10.8058 4.99359 10.6761 4.81008C10.5465 4.62657 10.3632 4.48773 10.1514 4.41264L7.91416 3.62162C7.76189 3.56752 7.62358 3.48016 7.50932 3.3659C7.39505 3.25164 7.30769 3.11334 7.25358 2.96108L6.46253 0.723927ZM39.1324 18.67L39.0943 18.5667L37.5992 14.6524L37.1316 16.0931L36.2155 18.9065H18.1544L17.241 16.0931L16.7735 14.6579L15.2756 18.5858L15.2647 18.613L15.2539 18.6401L15.2212 18.7217C14.9059 19.5711 14.8709 20.4991 15.1213 21.3699C15.3718 22.2406 15.8946 23.0082 16.6131 23.5602L16.6158 23.563L16.6239 23.5711L16.6511 23.5929L16.6783 23.6146L16.6892 23.62L23.4145 28.6815L23.4281 28.6924L26.7772 31.234L27.1795 31.5384L27.5764 31.234L30.9282 28.6924L30.9445 28.6815L37.7134 23.5901L37.7297 23.5793L37.7542 23.563C38.4774 23.0085 39.0028 22.2359 39.2525 21.3595C39.5022 20.4831 39.463 19.5496 39.1406 18.6972L39.1324 18.67ZM40.1953 26.8249L33.3938 31.9353L30.042 34.4796L28.0087 36.0263C27.7701 36.2071 27.4789 36.3049 27.1795 36.3049C26.8802 36.3049 26.589 36.2071 26.3504 36.0263L24.3116 34.4796L20.9625 31.938L14.2073 26.8548L14.1719 26.8249L14.1529 26.8113C12.7265 25.7243 11.6896 24.2055 11.1968 22.4812C10.7039 20.7569 10.7816 18.9195 11.4182 17.2429L11.4644 17.1288L14.7646 8.48191L14.9494 7.99806L15.0663 7.68817L15.5366 6.45679L15.5828 6.33447L15.9036 5.49724C15.9821 5.29798 16.114 5.12414 16.2846 4.99471C16.4553 4.86528 16.6583 4.78523 16.8713 4.7633C17.1471 4.73409 17.4244 4.80391 17.6534 4.96027C17.8825 5.11663 18.0485 5.34935 18.1218 5.61684L18.3909 6.44592L18.4018 6.48125L18.9264 8.09592L19.0895 8.58792L21.1175 14.8291H33.2525L35.2831 8.58792L35.4462 8.09863L35.9709 6.48125L35.9818 6.44592L36.2509 5.61684C36.3008 5.44065 36.3911 5.27853 36.5147 5.14337C36.6382 5.00822 36.7916 4.90377 36.9627 4.83831C37.1337 4.77286 37.3177 4.74821 37.4999 4.76633C37.6821 4.78446 37.8576 4.84485 38.0124 4.94271C38.2191 5.07503 38.3789 5.26904 38.4691 5.49724L38.7844 6.32631L38.8361 6.45679L39.3009 7.68002L39.4233 7.99806L39.6081 8.47919L42.9083 17.1261L42.9518 17.2457C43.5868 18.9218 43.6633 20.7582 43.1701 22.4814C42.6768 24.2045 41.6401 25.7223 40.2143 26.8086L40.1953 26.8249ZM8.23765 30.8072C8.33179 30.543 8.50539 30.3143 8.73463 30.1526C8.96386 29.991 9.23751 29.9042 9.51802 29.9042C9.79854 29.9042 10.0722 29.991 10.3014 30.1526C10.5307 30.3143 10.7042 30.543 10.7984 30.8072L11.7879 33.6016C11.8555 33.7921 11.9648 33.9652 12.1077 34.1081C12.2507 34.2511 12.4238 34.3603 12.6143 34.4279L15.4088 35.4174C15.6731 35.5115 15.9017 35.6851 16.0634 35.9143C16.2251 36.1436 16.3119 36.4172 16.3119 36.6977C16.3119 36.9782 16.2251 37.2518 16.0634 37.4811C15.9017 37.7103 15.6731 37.8839 15.4088 37.978L12.6143 38.9675C12.4238 39.0351 12.2507 39.1443 12.1077 39.2873C11.9648 39.4303 11.8555 39.6033 11.7879 39.7938L10.7984 42.5882C10.7042 42.8525 10.5307 43.0811 10.3014 43.2428C10.0722 43.4044 9.79854 43.4912 9.51802 43.4912C9.23751 43.4912 8.96386 43.4044 8.73463 43.2428C8.50539 43.0811 8.33179 42.8525 8.23765 42.5882L7.24815 39.7938C7.18053 39.6033 7.07127 39.4303 6.9283 39.2873C6.78534 39.1443 6.61229 39.0351 6.42175 38.9675L3.62722 37.978C3.36298 37.8839 3.13433 37.7103 2.97266 37.4811C2.81098 37.2518 2.72419 36.9782 2.72419 36.6977C2.72419 36.4172 2.81098 36.1436 2.97266 35.9143C3.13433 35.6851 3.36298 35.5115 3.62722 35.4174L6.42175 34.4279C6.61229 34.3603 6.78534 34.2511 6.9283 34.1081C7.07127 33.9652 7.18053 33.7921 7.24815 33.6016L8.23765 30.8072Z" fill="url(#paint0_linear_264_19395)"/>
<defs>
<linearGradient id="paint0_linear_264_19395" x1="21.7456" y1="0" x2="21.7456" y2="43.4912" gradientUnits="userSpaceOnUse">
<stop stop-color="#FFC9BF"/>
<stop offset="1" stop-color="#FF2600"/>
</linearGradient>
</defs>
</svg>
