<svg width="17" height="19" viewBox="0 0 17 19" fill="none" xmlns="http://www.w3.org/2000/svg">
<path d="M13.1007 1.52914C14.3188 1.31837 15.537 1.10753 16.7958 0.889648C16.5578 2.13251 16.3232 3.35711 16.081 4.62188C15.8564 4.39763 15.6369 4.20133 15.4461 3.97993C15.3124 3.825 15.2295 3.85681 15.1037 3.98086C14.3106 4.76359 13.5126 5.54141 12.7152 6.32002C11.2923 7.7097 9.86687 9.097 8.4487 10.4915C8.3303 10.6079 8.27126 10.5892 8.16581 10.4879C7.57068 9.91672 6.96618 9.35518 6.37291 8.78216C6.25723 8.67067 6.19607 8.6621 6.077 8.7823C4.77418 10.0944 3.46332 11.3984 2.16043 12.71C2.04163 12.8302 1.97894 12.8503 1.85091 12.7183C1.47306 12.3284 1.08059 11.9524 0.688067 11.5769C0.60134 11.4939 0.601606 11.4482 0.687469 11.363C2.51523 9.54876 4.34174 7.73301 6.16187 5.91096C6.29109 5.78173 6.34814 5.86135 6.42829 5.93712C7.01751 6.494 7.60886 7.04896 8.19204 7.61222C8.288 7.70512 8.33096 7.69788 8.4228 7.60916C10.0462 6.04211 11.6741 4.4793 13.301 2.9157C13.4434 2.77904 13.5798 2.6348 13.7329 2.51102C13.8699 2.40019 13.8447 2.32648 13.727 2.22182C13.4975 2.01723 13.2792 1.80008 13.0564 1.58818C13.0711 1.56865 13.0861 1.549 13.1007 1.52914Z" fill="black"/>
<path d="M4.92202 13.9336H0.370605V18.3614H4.92202V13.9336Z" fill="black"/>
<path d="M10.8153 11.8467H6.26367V18.3619H10.8153V11.8467Z" fill="black"/>
<path d="M16.6868 9.00879H12.1353V18.367H16.6868V9.00879Z" fill="black"/>
</svg>
