<svg width="22" height="21" viewBox="0 0 22 21" fill="none" xmlns="http://www.w3.org/2000/svg">
<path d="M11.0002 0.150399C8.87135 0.147767 6.78967 0.751374 5.01942 1.8846L3.30822 0.244699C3.26076 0.199855 3.20055 0.169438 3.13512 0.157263C3.0697 0.145088 3.00198 0.151697 2.94046 0.176262C2.87894 0.200827 2.82636 0.242254 2.78931 0.295346C2.75227 0.348437 2.7324 0.410831 2.73222 0.474699V2.5769H0.538615C0.47197 2.57708 0.406864 2.59612 0.351464 2.63162C0.296063 2.66712 0.252836 2.71751 0.227203 2.77647C0.20157 2.83542 0.194673 2.90032 0.207377 2.96302C0.220081 3.02571 0.251821 3.08342 0.298615 3.1289L2.00982 4.7688C0.676972 6.68937 0.0517475 8.98157 0.233394 11.2815C0.415041 13.5815 1.39315 15.7574 3.01245 17.4638C4.63175 19.1703 6.79944 20.3095 9.17141 20.7005C11.5434 21.0916 13.9837 20.7122 16.105 19.6225C18.2263 18.5328 19.9069 16.7952 20.8802 14.6857C21.8535 12.5762 22.0635 10.2155 21.4771 7.97849C20.8906 5.74147 19.5413 3.75629 17.6432 2.33807C15.7451 0.919859 13.407 0.149892 11.0002 0.150399ZM5.43222 3.1956V4.7067L3.40662 2.7655V1.2544L5.43222 3.1956ZM8.62901 8.6857C8.14432 9.26774 7.91053 10.0055 7.97564 10.7476C8.04075 11.4896 8.39982 12.1796 8.97913 12.6759C9.55844 13.1722 10.314 13.4372 11.0908 13.4164C11.8675 13.3955 12.6065 13.0905 13.1559 12.564C13.7054 12.0374 14.0236 11.3293 14.0454 10.5849C14.0671 9.8405 13.7906 9.11639 13.2727 8.56122C12.7549 8.00605 12.0349 7.66195 11.2605 7.59955C10.4862 7.53715 9.71637 7.7612 9.10902 8.2257L7.06182 6.2638C8.21432 5.27904 9.72203 4.76367 11.2647 4.82718C12.8073 4.89069 14.2634 5.52806 15.3235 6.60391C16.3837 7.67976 16.9644 9.10931 16.9423 10.5889C16.9202 12.0685 16.297 13.4815 15.2052 14.5279C14.1134 15.5742 12.6389 16.1714 11.095 16.1926C9.55104 16.2137 8.05934 15.6572 6.93671 14.6413C5.81409 13.6253 5.149 12.2299 5.08273 10.7516C5.01647 9.27317 5.55424 7.82828 6.58182 6.7238L8.62901 8.6857ZM10.3522 10.3371C10.3121 10.4771 10.3214 10.6258 10.3787 10.7602C10.436 10.8946 10.5381 11.007 10.669 11.08C10.7999 11.153 10.9524 11.1824 11.1026 11.1637C11.2528 11.145 11.3923 11.0792 11.4994 10.9765C11.6066 10.8739 11.6752 10.7402 11.6948 10.5962C11.7143 10.4523 11.6836 10.3062 11.6074 10.1807C11.5313 10.0552 11.4139 9.95738 11.2737 9.90247C11.1335 9.84756 10.9783 9.83864 10.8322 9.8771L9.59382 8.6903C10.074 8.34643 10.6722 8.18959 11.2682 8.25135C11.8641 8.31312 12.4136 8.58889 12.8059 9.02319C13.1983 9.45749 13.4044 10.0181 13.3829 10.5922C13.3614 11.1662 13.1138 11.7112 12.6899 12.1174C12.2661 12.5236 11.6974 12.7609 11.0984 12.7815C10.4993 12.8021 9.91436 12.6046 9.46118 12.2286C9.008 11.8526 8.72023 11.326 8.65579 10.7549C8.59134 10.1838 8.75499 9.61046 9.11382 9.1503L10.3522 10.3371ZM2.92902 3.2232L4.95462 5.1644H3.37782L1.35222 3.2232H2.92902ZM11.0002 20.2041C9.17951 20.206 7.392 19.737 5.82627 18.8465C4.26053 17.956 2.9746 16.677 2.10413 15.1445C1.23365 13.612 0.810907 11.8827 0.880479 10.1392C0.95005 8.39559 1.50936 6.70233 2.49942 5.238L2.99862 5.7164C3.03018 5.74647 3.06763 5.77028 3.10881 5.78646C3.15 5.80264 3.19411 5.81088 3.23862 5.8107H5.63862L6.11862 6.2707C4.96586 7.49538 4.35787 9.10314 4.42426 10.7512C4.49065 12.3993 5.22617 13.9574 6.47402 15.0932C7.72188 16.2291 9.38334 16.8529 11.1042 16.8317C12.8251 16.8105 14.4693 16.1459 15.6863 14.9797C16.9032 13.8134 17.5967 12.2378 17.6188 10.5886C17.6409 8.9394 16.99 7.34716 15.8047 6.1513C14.6195 4.95544 12.9937 4.25057 11.274 4.18694C9.5542 4.12331 7.87654 4.70597 6.59862 5.8107L6.11862 5.3507V3.0507C6.1188 3.00804 6.11021 2.96577 6.09332 2.92631C6.07644 2.88684 6.05159 2.85095 6.02022 2.8207L5.52102 2.3423C6.84416 1.52708 8.34733 1.01857 9.91128 0.857108C11.4752 0.695648 13.0569 0.885681 14.5309 1.41213C16.0048 1.93858 17.3305 2.78697 18.4027 3.88997C19.4749 4.99298 20.2641 6.32027 20.7078 7.76652C21.1514 9.21278 21.2373 10.7382 20.9585 12.2218C20.6798 13.7054 20.0441 15.1064 19.102 16.3135C18.1598 17.5206 16.937 18.5007 15.5307 19.1761C14.1244 19.8514 12.5732 20.2034 11.0002 20.2041Z" fill="black"/>
</svg>
