<svg width="23" height="23" viewBox="0 0 23 23" fill="none" xmlns="http://www.w3.org/2000/svg">
<path fill-rule="evenodd" clip-rule="evenodd" d="M11.5 0C5.14957 0 0 5.14848 0 11.5C0 16.5809 3.29514 20.8916 7.86442 22.4123C8.4391 22.5187 8.65017 22.1627 8.65017 21.8591C8.65017 21.585 8.63961 20.6789 8.63461 19.7179C5.43529 20.4137 4.76019 18.3611 4.76019 18.3611C4.23702 17.0319 3.48337 16.6784 3.48337 16.6784C2.43987 15.9646 3.56202 15.9793 3.56202 15.9793C4.71669 16.0604 5.32485 17.1646 5.32485 17.1646C6.35052 18.9226 8.01509 18.4143 8.67143 18.1205C8.77466 17.3773 9.07256 16.8698 9.40155 16.5826C6.84722 16.2919 4.16196 15.3058 4.16196 10.8993C4.16196 9.64386 4.61125 8.61793 5.34697 7.81256C5.22758 7.52279 4.8339 6.35322 5.45839 4.76908C5.45839 4.76908 6.42413 4.46019 8.62156 5.94805C9.53895 5.69321 10.5228 5.56542 11.5001 5.56099C12.4773 5.56542 13.4619 5.69321 14.3809 5.94805C16.5759 4.46019 17.5403 4.76908 17.5403 4.76908C18.1662 6.35322 17.7725 7.52279 17.6531 7.81256C18.3905 8.61793 18.8367 9.64381 18.8367 10.8993C18.8367 15.3164 16.1464 16.2888 13.5855 16.5735C13.998 16.9304 14.3654 17.6303 14.3654 18.7031C14.3654 20.2418 14.3523 21.4802 14.3523 21.8591C14.3523 22.1652 14.5592 22.5238 15.1421 22.4109C19.709 20.8885 23 16.5793 23 11.5C23 5.14848 17.8511 0 11.5 0Z" fill="black"/>
</svg>
