<svg width="32" height="36" viewBox="0 0 32 36" fill="none" xmlns="http://www.w3.org/2000/svg">
<path d="M13.5668 18.4478C10.3369 18.4478 7.23915 19.73 4.9541 22.0127C2.66906 24.2954 1.38367 27.3919 1.38037 30.6217V34.2923H30.047V30.6217C30.0437 27.394 28.7601 24.2994 26.4777 22.0171C24.1954 19.7347 21.1008 18.4511 17.873 18.4478H13.5668Z" fill="#F0E5FF"/>
<path d="M15.7137 1.40049C13.6803 1.39461 11.7225 2.17095 10.2458 3.56875C8.76907 4.96656 7.88646 6.87875 7.78074 8.90938C7.67502 10.94 8.3543 12.9335 9.67791 14.4771C11.0015 16.0207 12.8681 16.9961 14.891 17.2014H16.5518C18.5763 16.9961 20.4441 16.0196 21.7679 14.4743C23.0918 12.929 23.7702 10.9335 23.6624 8.90154C23.5546 6.86956 22.6689 4.95702 21.189 3.56045C19.7091 2.16389 17.7485 1.39044 15.7137 1.40049Z" fill="#F0E5FF"/>
<path d="M20.5216 17.3104C22.2675 16.2595 23.6209 14.6656 24.3749 12.7725C25.1289 10.8794 25.2419 8.79136 24.6965 6.82795C24.1512 4.86453 22.9776 3.13386 21.3553 1.90075C19.7331 0.667637 17.7514 0 15.7137 0C13.676 0 11.6943 0.667637 10.0721 1.90075C8.44977 3.13386 7.27617 4.86453 6.73084 6.82795C6.18551 8.79136 6.29848 10.8794 7.05247 12.7725C7.80646 14.6656 9.15994 16.2595 10.9058 17.3104C7.8318 17.9313 5.0669 19.5956 3.07942 22.0215C1.09193 24.4474 0.00403643 27.4857 0 30.6217V34.9155C0 35.1221 0.0820708 35.3202 0.228159 35.4663C0.374247 35.6124 0.572386 35.6945 0.778986 35.6945H30.6702C30.8768 35.6945 31.075 35.6124 31.221 35.4663C31.3671 35.3202 31.4492 35.1221 31.4492 34.9155V30.6217C31.4442 27.4826 30.3532 24.4419 28.3613 22.0156C26.3695 19.5893 23.5996 17.9269 20.5216 17.3104ZM7.94565 9.32426C7.94567 7.82359 8.38053 6.35507 9.19765 5.09635C10.0148 3.83764 11.1791 2.84268 12.5498 2.23182C13.9206 1.62097 15.4389 1.42039 16.9212 1.65437C18.4036 1.88835 19.7863 2.54685 20.9023 3.55021C22.0182 4.55358 22.8195 5.85881 23.2091 7.308C23.5988 8.7572 23.5602 10.2883 23.098 11.716C22.6358 13.1437 21.7698 14.4069 20.6047 15.3528C19.4396 16.2986 18.0254 16.8866 16.5332 17.0456H14.8911C12.987 16.8372 11.2265 15.9346 9.94588 14.5102C8.66524 13.0859 7.95425 11.2397 7.94877 9.32426H7.94565ZM29.8757 34.1365H1.54862V30.6217C1.55192 27.4353 2.81918 24.3804 5.07231 22.1272C7.32545 19.8741 10.3804 18.6068 13.5668 18.6035H14.8132C15.1061 18.6316 15.4052 18.6472 15.7075 18.6472C16.0097 18.6472 16.3057 18.6316 16.6017 18.6035H17.8481C21.0367 18.6035 24.0948 19.8693 26.3507 22.1228C28.6065 24.3763 29.8755 27.4332 29.8788 30.6217L29.8757 34.1365Z" fill="#6563FF"/>
</svg>
