<svg width="19" height="19" viewBox="0 0 19 19" fill="none" xmlns="http://www.w3.org/2000/svg">
<g clip-path="url(#clip0_190_11633)">
<path d="M10.293 0H8.70963C8.07975 0 7.47566 0.250222 7.03026 0.695621C6.58486 1.14102 6.33464 1.74511 6.33464 2.375V3.16667H1.58464C1.37467 3.16667 1.17331 3.25007 1.02484 3.39854C0.876376 3.54701 0.792969 3.74837 0.792969 3.95833C0.792969 4.1683 0.876376 4.36966 1.02484 4.51813C1.17331 4.66659 1.37467 4.75 1.58464 4.75H2.3763V15.8333C2.3763 16.6732 2.70993 17.4786 3.3038 18.0725C3.89766 18.6664 4.70312 19 5.54297 19H13.4596C14.2995 19 15.1049 18.6664 15.6988 18.0725C16.2927 17.4786 16.6263 16.6732 16.6263 15.8333V4.75H17.418C17.6279 4.75 17.8293 4.66659 17.9778 4.51813C18.1262 4.36966 18.2096 4.1683 18.2096 3.95833C18.2096 3.74837 18.1262 3.54701 17.9778 3.39854C17.8293 3.25007 17.6279 3.16667 17.418 3.16667H12.668V2.375C12.668 1.74511 12.4177 1.14102 11.9723 0.695621C11.5269 0.250222 10.9229 0 10.293 0ZM7.91797 2.375C7.91797 2.16504 8.00138 1.96367 8.14984 1.81521C8.29831 1.66674 8.49967 1.58333 8.70963 1.58333H10.293C10.5029 1.58333 10.7043 1.66674 10.8528 1.81521C11.0012 1.96367 11.0846 2.16504 11.0846 2.375V3.16667H7.91797V2.375ZM15.043 15.8333C15.043 16.2533 14.8762 16.656 14.5792 16.9529C14.2823 17.2499 13.8796 17.4167 13.4596 17.4167H5.54297C5.12304 17.4167 4.72032 17.2499 4.42338 16.9529C4.12645 16.656 3.95964 16.2533 3.95964 15.8333V4.75H15.043V15.8333Z" fill="#777E8F"/>
<path d="M9.4987 7.125C9.28873 7.125 9.08737 7.20841 8.93891 7.35687C8.79044 7.50534 8.70703 7.7067 8.70703 7.91667V14.25C8.70703 14.46 8.79044 14.6613 8.93891 14.8098C9.08737 14.9583 9.28873 15.0417 9.4987 15.0417C9.70866 15.0417 9.91002 14.9583 10.0585 14.8098C10.207 14.6613 10.2904 14.46 10.2904 14.25V7.91667C10.2904 7.7067 10.207 7.50534 10.0585 7.35687C9.91002 7.20841 9.70866 7.125 9.4987 7.125Z" fill="#777E8F"/>
<path d="M11.875 14.25C11.875 14.46 11.9584 14.6613 12.1069 14.8098C12.2553 14.9583 12.4567 15.0417 12.6667 15.0417C12.8766 15.0417 13.078 14.9583 13.2265 14.8098C13.3749 14.6613 13.4583 14.46 13.4583 14.25V7.91667C13.4583 7.7067 13.3749 7.50534 13.2265 7.35687C13.078 7.20841 12.8766 7.125 12.6667 7.125C12.4567 7.125 12.2553 7.20841 12.1069 7.35687C11.9584 7.50534 11.875 7.7067 11.875 7.91667V14.25Z" fill="#777E8F"/>
<path d="M6.33464 7.125C6.12467 7.125 5.92331 7.20841 5.77484 7.35687C5.62638 7.50534 5.54297 7.7067 5.54297 7.91667V14.25C5.54297 14.46 5.62638 14.6613 5.77484 14.8098C5.92331 14.9583 6.12467 15.0417 6.33464 15.0417C6.5446 15.0417 6.74596 14.9583 6.89443 14.8098C7.04289 14.6613 7.1263 14.46 7.1263 14.25V7.91667C7.1263 7.7067 7.04289 7.50534 6.89443 7.35687C6.74596 7.20841 6.5446 7.125 6.33464 7.125Z" fill="#777E8F"/>
</g>
<defs>
<clipPath id="clip0_190_11633">
<rect width="19" height="19" fill="white"/>
</clipPath>
</defs>
</svg>
