<svg width="69" height="79" viewBox="0 0 69 79" fill="none" xmlns="http://www.w3.org/2000/svg">
<path d="M7.95833 10.168C3.77006 10.168 0.375 13.5805 0.375 17.7513V70.8346C0.375 75.0055 3.77006 78.418 7.95833 78.418H30.7083H38.2917H61.0417C65.2315 78.418 68.625 75.0055 68.625 70.8346V17.7513C68.625 13.5805 65.2315 10.168 61.0417 10.168H38.2917H30.7083H7.95833Z" fill="#BDC3C7"/>
<path d="M7.95833 6.375C3.77006 6.375 0.375 9.77006 0.375 13.9583V67.0417C0.375 71.2315 3.77006 74.625 7.95833 74.625H30.7083H38.2917H61.0417C65.2315 74.625 68.625 71.2315 68.625 67.0417V13.9583C68.625 9.77006 65.2315 6.375 61.0417 6.375H38.2917H30.7083H7.95833Z" fill="#ECF0F1"/>
<path d="M7.95833 6.375C3.77006 6.375 0.375 9.7875 0.375 13.9583V25.3333H68.625V13.9583C68.625 9.7875 65.2315 6.375 61.0417 6.375H38.2917H30.7083H7.95833Z" fill="#E74C3C"/>
<path d="M17.4375 15.8555C17.4375 16.6024 17.2904 17.3419 17.0046 18.032C16.7187 18.722 16.2998 19.349 15.7717 19.8771C15.2435 20.4053 14.6166 20.8242 13.9265 21.11C13.2365 21.3959 12.4969 21.543 11.75 21.543C11.0031 21.543 10.2635 21.3959 9.57349 21.11C8.88345 20.8242 8.25646 20.4053 7.72833 19.8771C7.2002 19.349 6.78126 18.722 6.49543 18.032C6.20961 17.3419 6.0625 16.6024 6.0625 15.8555C6.0625 15.1086 6.20961 14.369 6.49543 13.679C6.78126 12.9889 7.2002 12.3619 7.72833 11.8338C8.25646 11.3057 8.88345 10.8867 9.57349 10.6009C10.2635 10.3151 11.0031 10.168 11.75 10.168C12.4969 10.168 13.2365 10.3151 13.9265 10.6009C14.6166 10.8867 15.2435 11.3057 15.7717 11.8338C16.2998 12.3619 16.7187 12.9889 17.0046 13.679C17.2904 14.369 17.4375 15.1086 17.4375 15.8555Z" fill="#C0392B"/>
<path d="M11.7507 -1.20703C9.65651 -1.20703 7.95898 0.490498 7.95898 2.58464V13.9596C7.95898 16.0538 9.65651 17.7513 11.7507 17.7513C13.8448 17.7513 15.5423 16.0538 15.5423 13.9596V2.58464C15.5423 0.490498 13.8448 -1.20703 11.7507 -1.20703Z" fill="#BDC3C7"/>
<path d="M62.9375 15.8555C62.9375 16.6024 62.7904 17.3419 62.5046 18.032C62.2187 18.722 61.7998 19.349 61.2717 19.8771C60.7435 20.4053 60.1166 20.8242 59.4265 21.11C58.7365 21.3959 57.9969 21.543 57.25 21.543C56.5031 21.543 55.7635 21.3959 55.0735 21.11C54.3834 20.8242 53.7565 20.4053 53.2283 19.8771C52.7002 19.349 52.2813 18.722 51.9954 18.032C51.7096 17.3419 51.5625 16.6024 51.5625 15.8555C51.5625 15.1086 51.7096 14.369 51.9954 13.679C52.2813 12.9889 52.7002 12.3619 53.2283 11.8338C53.7565 11.3057 54.3834 10.8867 55.0735 10.6009C55.7635 10.3151 56.5031 10.168 57.25 10.168C57.9969 10.168 58.7365 10.3151 59.4265 10.6009C60.1166 10.8867 60.7435 11.3057 61.2717 11.8338C61.7998 12.3619 62.2187 12.9889 62.5046 13.679C62.7904 14.369 62.9375 15.1086 62.9375 15.8555Z" fill="#C0392B"/>
<path d="M57.2507 -1.20703C55.1577 -1.20703 53.459 0.309635 53.459 2.58464V13.9596C53.459 15.8555 55.1577 17.7513 57.2507 17.7513C59.3437 17.7513 61.0423 15.8555 61.0423 13.9596V2.58464C61.0423 0.309635 59.3437 -1.20703 57.2507 -1.20703Z" fill="#BDC3C7"/>
<path d="M68.625 25.3359H0.375V29.1276H68.625V25.3359Z" fill="#C0392B"/>
</svg>
