<svg width="40" height="39" viewBox="0 0 40 39" fill="none" xmlns="http://www.w3.org/2000/svg">
<path d="M6.37168 0.0552521C5.62209 0.138081 4.77721 0.40731 4.03596 0.792469C2.29239 1.7118 0.996202 3.5009 0.652446 5.47219C0.577857 5.89045 0.57373 6.45367 0.57373 19.47V33.033L0.669031 33.4554C1.26538 36.1514 3.17037 38.0565 5.86644 38.6528L6.28885 38.748H19.9139H33.5391L33.9615 38.6528C36.6575 38.0565 38.5626 36.1514 39.1589 33.4554L39.2541 33.033V19.47C39.2541 6.45366 39.25 5.89044 39.1755 5.47219C39.0719 4.86753 38.8649 4.25873 38.5501 3.62931C37.5686 1.6538 35.5973 0.287182 33.3859 0.046978C32.8806 -0.00688171 6.86036 -0.00266266 6.37168 0.0552521ZM21.1688 6.94241C22.5934 7.12046 23.7447 7.46418 25.0078 8.08125C26.2502 8.69006 27.0453 9.26568 28.0973 10.3134C29.0829 11.3032 29.6296 12.0528 30.2094 13.2165C31.017 14.84 31.4767 16.7698 31.5553 18.8944C31.5843 19.619 31.5636 19.7806 31.3979 19.9876C31.0832 20.3894 30.3916 20.3231 30.1556 19.8717C30.081 19.7226 30.0603 19.5943 30.0354 19.0144C29.994 18.1241 29.9319 17.5484 29.8077 16.8609C29.319 14.1649 28.0269 12.0114 25.9644 10.4667C24.2458 9.17458 22.4691 8.54502 20.1417 8.40841C19.3549 8.36282 19.2182 8.33386 19.0401 8.19717C18.7087 7.93629 18.6922 7.32343 19.0111 7.03764C19.2058 6.85951 19.3424 6.83468 20.0175 6.85537C20.3695 6.86779 20.8871 6.90924 21.1688 6.94241ZM11.7016 7.38962C11.8466 7.43935 12.0702 7.55527 12.1986 7.63809C12.9854 8.15994 15.1762 10.9636 15.8927 12.3634C16.3027 13.1627 16.4393 13.7549 16.311 14.1939C16.1784 14.666 15.959 14.9145 14.9775 15.7055C14.584 16.0243 14.2154 16.3515 14.1575 16.4385C14.0084 16.6539 13.8882 17.0763 13.8882 17.3745C13.8924 18.0661 14.3397 19.3209 14.9278 20.2859C15.3833 21.0354 16.1991 21.9962 17.0067 22.7334C17.9551 23.6031 18.7916 24.1953 19.7359 24.6633C20.9493 25.2679 21.6906 25.4211 22.2332 25.1686C22.3698 25.1064 22.5147 25.0235 22.5603 24.9864C22.6017 24.9491 22.9206 24.5598 23.2685 24.1291C23.9394 23.2842 24.0926 23.1476 24.5523 22.9902C25.1363 22.7914 25.7326 22.8452 26.3331 23.1517C26.7886 23.3878 27.7826 24.0048 28.4245 24.4521C29.2693 25.0443 31.0749 26.5187 31.3193 26.8127C31.75 27.3428 31.8246 28.0219 31.5346 28.7716C31.2281 29.5625 30.0354 31.0451 29.203 31.6788C28.4493 32.2503 27.9151 32.4697 27.211 32.5029C26.6313 32.5318 26.3911 32.4822 25.6497 32.1757C19.8353 29.7779 15.1928 26.1998 11.507 21.2839C9.58125 18.7163 8.11519 16.0534 7.11294 13.2911C6.52905 11.6801 6.50008 10.9802 6.98042 10.1561C7.18753 9.80821 8.06964 8.9468 8.71154 8.46641C9.78004 7.67127 10.2728 7.37721 10.6663 7.29439C10.9354 7.23639 11.4034 7.28198 11.7016 7.38962ZM21.4545 9.9449C23.9684 10.3134 25.9148 11.4813 27.1903 13.3781C27.9068 14.4465 28.3541 15.7013 28.5073 17.0473C28.5611 17.5401 28.5611 18.4388 28.5032 18.5879C28.4493 18.7287 28.2753 18.9192 28.1262 18.9979C27.9647 19.0807 27.6211 19.0724 27.4305 18.9731C27.1116 18.8115 27.0164 18.5547 27.0164 17.859C27.0164 16.7864 26.7389 15.6558 26.2585 14.7779C25.7119 13.7756 24.9168 12.9474 23.9477 12.3717C23.1153 11.8747 21.8853 11.5061 20.7629 11.415C20.357 11.3819 20.1334 11.2991 19.9802 11.121C19.7442 10.8518 19.7193 10.4873 19.918 10.1851C20.1334 9.84957 20.4647 9.79572 21.4545 9.9449ZM22.3366 13.0716C23.1525 13.2455 23.7779 13.5561 24.3121 14.0573C24.9995 14.7074 25.3764 15.4943 25.5421 16.6249C25.6539 17.362 25.6083 17.6519 25.3474 17.8921C25.1031 18.1158 24.6517 18.1241 24.3783 17.9128C24.1796 17.7637 24.1174 17.6064 24.0719 17.1798C24.0181 16.6125 23.9186 16.2149 23.7489 15.8463C23.3844 15.0636 22.7425 14.6577 21.6575 14.5252C21.1481 14.463 20.9948 14.4051 20.8292 14.2105C20.5269 13.8502 20.6428 13.2662 21.0611 13.0509C21.2185 12.9722 21.2848 12.9639 21.6326 12.9846C21.848 12.997 22.1669 13.0343 22.3366 13.0716Z" fill="black"/>
</svg>
