<svg width="19" height="19" viewBox="0 0 19 19" fill="none" xmlns="http://www.w3.org/2000/svg">
<path d="M16.926 13.0367L14.3369 12.7411C14.0324 12.7054 13.7238 12.7391 13.4343 12.8397C13.1448 12.9403 12.8818 13.1053 12.6652 13.3221L10.7896 15.1977C7.89585 13.726 5.54381 11.374 4.07211 8.48027L5.95789 6.59449C6.39621 6.15618 6.61027 5.54457 6.53892 4.92278L6.24331 2.35404C6.18552 1.85678 5.94688 1.39814 5.57282 1.06544C5.19877 0.732735 4.71543 0.549211 4.21482 0.549806H2.45136C1.29951 0.549806 0.341326 1.50799 0.41268 2.65984C0.95293 11.365 7.91503 18.3169 16.61 18.8572C17.7619 18.9285 18.72 17.9703 18.72 16.8185V15.055C18.7302 14.0255 17.9555 13.159 16.926 13.0367Z" fill="#797979"/>
</svg>
