<svg width="16" height="30" viewBox="0 0 16 30" fill="none" xmlns="http://www.w3.org/2000/svg">
<path d="M13.4687 6.70362V21.9782C13.4687 24.9136 11.0912 27.2911 8.15582 27.2911C5.22045 27.2911 2.84292 24.9136 2.84292 21.9782V5.3754C2.84292 3.54245 4.33053 2.05484 6.16348 2.05484C7.99643 2.05484 9.48405 3.54245 9.48405 5.3754V19.3218C9.48405 20.0523 8.89299 20.65 8.15582 20.65C7.41866 20.65 6.8276 20.0523 6.8276 19.3218V6.70362H4.83526V19.3218C4.83526 21.1547 6.32287 22.6423 8.15582 22.6423C9.98877 22.6423 11.4764 21.1547 11.4764 19.3218V5.3754C11.4764 2.44002 9.09886 0.0625 6.16348 0.0625C3.22811 0.0625 0.850586 2.44002 0.850586 5.3754V21.9782C0.850586 26.016 4.12466 29.2834 8.15582 29.2834C12.187 29.2834 15.4611 26.016 15.4611 21.9782V6.70362H13.4687Z" fill="#777E90"/>
</svg>
