<svg width="21" height="22" viewBox="0 0 21 22" fill="none" xmlns="http://www.w3.org/2000/svg">
<path d="M9.60351 0V1.79492H6.46875V3.8418H4.80078V10.2129H3.31836V8.19726H2.31836V10.2129H0V21.1719H20.207V10.2129H17.8223V8.19726H16.8223V10.2129H15.2793V3.8418H13.4844V1.79492H10.6035V0H9.60351ZM7.46875 2.79492H12.4844V3.8418H7.46875V2.79492ZM5.80078 4.84375H14.2773V20.1699H11.918V16.4551H8.16211V20.1699H5.80273V10.2129H5.80073L5.80078 4.84375ZM1.91992 13.0176H3.88086V14.0195H1.91992V13.0176ZM16.2617 13.0176H18.2227V14.0195H16.2617V13.0176ZM1.91992 15.1914H3.88086V16.1914H1.91992V15.1914ZM16.2617 15.1914H18.2227V16.1914H16.2617V15.1914ZM1.91992 17.3652H3.88086V18.3652H1.91992V17.3652ZM16.2617 17.3652H18.2227V18.3652H16.2617V17.3652ZM9.16406 17.457H10.916V20.1699H9.16406V17.457Z" fill="#797979"/>
<path d="M7.55493 6.24316C7.55493 7.25924 7.55493 8.27533 7.55493 9.29141C9.16925 9.29141 10.7836 9.29141 12.3979 9.29141C12.3979 8.27533 12.3979 7.25924 12.3979 6.24316C10.7836 6.24316 9.16925 6.24316 7.55493 6.24316ZM8.55654 7.24486C9.50312 7.24486 10.4497 7.24486 11.3963 7.24486C11.3963 7.59377 11.3963 7.94268 11.3963 8.29158C10.4497 8.29158 9.50312 8.29158 8.55654 8.29158C8.55654 7.94268 8.55654 7.59377 8.55654 7.24486Z" fill="#797979"/>
<path d="M7.55493 10.9199C7.55493 11.936 7.55493 12.9521 7.55493 13.9682C9.16925 13.9682 10.7836 13.9682 12.3979 13.9682C12.3979 12.9521 12.3979 11.936 12.3979 10.9199C10.7836 10.9199 9.16925 10.9199 7.55493 10.9199ZM8.55654 11.9197C9.50312 11.9197 10.4497 11.9197 11.3963 11.9197C11.3963 12.2687 11.3963 12.6176 11.3963 12.9665C10.4497 12.9665 9.50312 12.9665 8.55654 12.9665C8.55654 12.6176 8.55654 12.2687 8.55654 11.9197Z" fill="#797979"/>
</svg>
