<svg width="20" height="22" viewBox="0 0 20 22" fill="none" xmlns="http://www.w3.org/2000/svg">
<path d="M13.9931 19.4297H5.38194C4.52552 19.4297 3.70416 19.0895 3.09858 18.4839C2.49299 17.8783 2.15278 17.0569 2.15278 16.2005V5.43663C2.15278 5.15116 2.03937 4.87737 1.83751 4.67551C1.63565 4.47365 1.36186 4.36024 1.07639 4.36024C0.790913 4.36024 0.517129 4.47365 0.315267 4.67551C0.113405 4.87737 0 5.15116 0 5.43663V16.2005C0 17.6279 0.567025 18.9968 1.57633 20.0061C2.58565 21.0154 3.95456 21.5825 5.38194 21.5825H13.9931C14.2785 21.5825 14.5523 21.4691 14.7542 21.2672C14.956 21.0653 15.0694 20.7916 15.0694 20.5061C15.0694 20.2206 14.956 19.9468 14.7542 19.745C14.5523 19.5431 14.2785 19.4297 13.9931 19.4297ZM19.375 7.52483C19.3638 7.42594 19.3421 7.32853 19.3104 7.2342V7.13733C19.2587 7.02665 19.1896 6.92492 19.1059 6.83594L12.6476 0.377604C12.5586 0.293878 12.4569 0.224844 12.3462 0.17309H12.2493L11.9049 0.0546875H7.53472C6.67829 0.0546875 5.85694 0.394902 5.25136 1.00049C4.64577 1.60607 4.30556 2.42743 4.30556 3.28385V14.0477C4.30556 14.9042 4.64577 15.7255 5.25136 16.3311C5.85694 16.9367 6.67829 17.2769 7.53472 17.2769H16.1458C17.0023 17.2769 17.8236 16.9367 18.4292 16.3311C19.0348 15.7255 19.375 14.9042 19.375 14.0477V7.58941C19.375 7.58941 19.375 7.58941 19.375 7.52483ZM12.9167 3.72517L15.7045 6.51302H13.9931C13.7076 6.51302 13.4338 6.39962 13.2319 6.19775C13.0301 5.99589 12.9167 5.72211 12.9167 5.43663V3.72517ZM17.2222 14.0477C17.2222 14.3332 17.1088 14.607 16.907 14.8089C16.7051 15.0107 16.4313 15.1241 16.1458 15.1241H7.53472C7.24925 15.1241 6.97546 15.0107 6.7736 14.8089C6.57174 14.607 6.45833 14.3332 6.45833 14.0477V3.28385C6.45833 2.99838 6.57174 2.72459 6.7736 2.52273C6.97546 2.32087 7.24925 2.20747 7.53472 2.20747H10.7639V5.43663C10.7639 6.29306 11.1041 7.11441 11.7097 7.72C12.3153 8.32558 13.1366 8.6658 13.9931 8.6658H17.2222V14.0477Z" fill="#626262"/>
</svg>
