<svg width="7" height="28" viewBox="0 0 7 28" fill="none" xmlns="http://www.w3.org/2000/svg">
<path d="M6.36903 24.412C6.36903 25.2303 6.04397 26.0151 5.46534 26.5937C4.88672 27.1724 4.10194 27.4974 3.28364 27.4974C2.46534 27.4974 1.68056 27.1724 1.10193 26.5937C0.523309 26.0151 0.198242 25.2303 0.198242 24.412C0.198242 23.5937 0.523309 22.8089 1.10193 22.2303C1.68056 21.6517 2.46534 21.3266 3.28364 21.3266C4.10194 21.3266 4.88672 21.6517 5.46534 22.2303C6.04397 22.8089 6.36903 23.5937 6.36903 24.412ZM6.36903 14.1274C6.36903 14.9457 6.04397 15.7305 5.46534 16.3091C4.88672 16.8877 4.10194 17.2128 3.28364 17.2128C2.46534 17.2128 1.68056 16.8877 1.10193 16.3091C0.523309 15.7305 0.198242 14.9457 0.198242 14.1274C0.198242 13.3091 0.523309 12.5243 1.10193 11.9457C1.68056 11.367 2.46534 11.042 3.28364 11.042C4.10194 11.042 4.88672 11.367 5.46534 11.9457C6.04397 12.5243 6.36903 13.3091 6.36903 14.1274V14.1274ZM6.36903 3.84272C6.36903 4.66102 6.04397 5.4458 5.46534 6.02443C4.88672 6.60305 4.10194 6.92812 3.28364 6.92812C2.46534 6.92812 1.68056 6.60305 1.10193 6.02443C0.523309 5.4458 0.198242 4.66102 0.198242 3.84272C0.198242 3.02442 0.523309 2.23964 1.10193 1.66102C1.68056 1.08239 2.46534 0.757324 3.28364 0.757324C4.10194 0.757324 4.88672 1.08239 5.46534 1.66102C6.04397 2.23964 6.36903 3.02442 6.36903 3.84272V3.84272Z" fill="#777E90"/>
</svg>
