<svg width="31" height="30" viewBox="0 0 31 30" fill="none" xmlns="http://www.w3.org/2000/svg">
<rect x="1.6563" y="0.830613" width="27.7039" height="27.7039" rx="13.852" stroke="#0C0B0B" stroke-width="1.4581"/>
<path d="M15.6739 18.5699L15.6739 19.4499L16.2962 18.8277L18.7825 16.3413C18.8471 16.2767 18.9517 16.2767 19.0163 16.3413C19.0808 16.4058 19.0808 16.5106 19.0163 16.5751L15.6255 19.9659C15.5609 20.0304 15.4563 20.0304 15.3917 19.9659L15.134 20.2236L15.3917 19.9659L12.001 16.5753C12.001 16.5753 12.001 16.5753 12.001 16.5753C11.9686 16.5428 11.9525 16.501 11.9525 16.4583C11.9525 16.4155 11.9686 16.3737 12.001 16.3413C12.0656 16.2768 12.1701 16.2768 12.2347 16.3414L12.2347 16.3414L14.721 18.8277L15.3433 19.4499L15.3433 18.5699L15.3433 9.51419C15.3433 9.42294 15.4174 9.3489 15.5086 9.3489C15.5999 9.3489 15.6739 9.42292 15.6739 9.51419L15.6739 18.5699Z" fill="#0C0B0B" stroke="#0C0B0B" stroke-width="0.72905"/>
</svg>
