<svg width="19" height="16" viewBox="0 0 19 16" fill="none" xmlns="http://www.w3.org/2000/svg">
<path d="M16.5204 0.702148H2.02787C1.03151 0.702148 0.225366 1.51735 0.225366 2.51371L0.216309 13.3831C0.216309 14.3794 1.03151 15.1946 2.02787 15.1946H16.5204C17.5167 15.1946 18.3319 14.3794 18.3319 13.3831V2.51371C18.3319 1.51735 17.5167 0.702148 16.5204 0.702148ZM16.158 4.55172L9.75418 8.55526C9.46432 8.73642 9.0839 8.73642 8.79405 8.55526L2.39018 4.55172C2.29936 4.50073 2.21982 4.43185 2.15639 4.34923C2.09296 4.26662 2.04695 4.17199 2.02114 4.07108C1.99534 3.97017 1.99028 3.86507 2.00627 3.76215C2.02226 3.65923 2.05897 3.56062 2.11417 3.4723C2.16938 3.38397 2.24193 3.30777 2.32743 3.24829C2.41294 3.18882 2.50963 3.14731 2.61164 3.12629C2.71365 3.10526 2.81887 3.10515 2.92093 3.12597C3.02298 3.14679 3.11975 3.18809 3.20538 3.24739L9.27411 7.04261L15.3428 3.24739C15.4285 3.18809 15.5252 3.14679 15.6273 3.12597C15.7294 3.10515 15.8346 3.10526 15.9366 3.12629C16.0386 3.14731 16.1353 3.18882 16.2208 3.24829C16.3063 3.30777 16.3788 3.38397 16.434 3.4723C16.4893 3.56062 16.526 3.65923 16.542 3.76215C16.5579 3.86507 16.5529 3.97017 16.5271 4.07108C16.5013 4.17199 16.4553 4.26662 16.3918 4.34923C16.3284 4.43185 16.2489 4.50073 16.158 4.55172Z" fill="#797979"/>
</svg>
