<svg width="19" height="19" viewBox="0 0 19 19" fill="none" xmlns="http://www.w3.org/2000/svg">
<path d="M16.2114 19H2.78856C2.04925 18.9991 1.34048 18.705 0.817716 18.1823C0.29495 17.6595 0.000875581 16.9507 0 16.2114V6.94776C0.000875581 6.20846 0.29495 5.49969 0.817716 4.97692C1.34048 4.45415 2.04925 4.16008 2.78856 4.1592H7.50878C7.8723 4.1592 8.22093 4.0148 8.47797 3.75775C8.73502 3.5007 8.87943 3.15208 8.87943 2.78856C8.88018 2.04922 9.17421 1.34037 9.69701 0.817579C10.2198 0.294785 10.9286 0.000750728 11.668 0H16.2114C16.9508 0.000750728 17.6596 0.294785 18.1824 0.817579C18.7052 1.34037 18.9992 2.04922 19 2.78856V16.2114C18.9992 16.9508 18.7052 17.6596 18.1824 18.1824C17.6596 18.7052 16.9508 18.9992 16.2114 19ZM2.78856 5.57711C2.42504 5.57711 2.07641 5.72152 1.81936 5.97857C1.56232 6.23561 1.41791 6.58424 1.41791 6.94776V16.2114C1.41791 16.575 1.56232 16.9236 1.81936 17.1806C2.07641 17.4377 2.42504 17.5821 2.78856 17.5821H16.2114C16.575 17.5821 16.9236 17.4377 17.1806 17.1806C17.4377 16.9236 17.5821 16.575 17.5821 16.2114V2.78856C17.5821 2.42504 17.4377 2.07641 17.1806 1.81936C16.9236 1.56232 16.575 1.41791 16.2114 1.41791H11.668C11.3045 1.41791 10.9558 1.56232 10.6988 1.81936C10.4417 2.07641 10.2973 2.42504 10.2973 2.78856C10.2965 3.52786 10.0024 4.23663 9.47962 4.7594C8.95685 5.28216 8.24808 5.57624 7.50878 5.57711H2.78856Z" fill="#797979"/>
</svg>
