<svg width="24" height="25" viewBox="0 0 24 25" fill="none" xmlns="http://www.w3.org/2000/svg">
<path d="M7.88788 10.7251C6.01004 10.7251 4.209 11.4706 2.88049 12.7977C1.55197 14.1249 0.804655 15.9252 0.802734 17.803V19.9371H17.4694V17.803C17.4675 15.9264 16.7212 14.1272 15.3942 12.8003C14.0673 11.4733 12.2681 10.727 10.3915 10.7251H7.88788Z" fill="white"/>
<path d="M9.13597 0.814021C7.95378 0.810603 6.81556 1.26196 5.95699 2.07464C5.09842 2.88732 4.58527 3.99906 4.52381 5.17966C4.46235 6.36025 4.85728 7.51927 5.62681 8.41671C6.39635 9.31415 7.48156 9.88126 8.65771 10.0006H9.62329C10.8003 9.88127 11.8862 9.31352 12.6559 8.41509C13.4256 7.51666 13.82 6.35648 13.7573 5.1751C13.6947 3.99372 13.1797 2.88177 12.3193 2.06981C11.4589 1.25786 10.319 0.80818 9.13597 0.814021Z" fill="white"/>
<path d="M11.9312 10.0642C12.9462 9.45323 13.7331 8.52652 14.1715 7.42587C14.6098 6.32522 14.6755 5.11126 14.3585 3.96974C14.0414 2.82822 13.3591 1.82201 12.4159 1.10509C11.4727 0.388161 10.3206 0 9.13587 0C7.95114 0 6.79904 0.388161 5.85585 1.10509C4.91266 1.82201 4.23034 2.82822 3.91328 3.96974C3.59623 5.11126 3.66191 6.32522 4.10028 7.42587C4.53864 8.52652 5.32555 9.45323 6.34058 10.0642C4.55338 10.4252 2.94588 11.3928 1.79036 12.8032C0.634844 14.2136 0.00234676 15.98 0 17.8033V20.2997C0 20.4198 0.0477156 20.535 0.132651 20.62C0.217586 20.7049 0.332783 20.7526 0.452899 20.7526H17.8315C17.9516 20.7526 18.0668 20.7049 18.1518 20.62C18.2367 20.535 18.2844 20.4198 18.2844 20.2997V17.8033C18.2815 15.9783 17.6472 14.2104 16.4892 12.7998C15.3311 11.3891 13.7207 10.4226 11.9312 10.0642ZM4.61957 5.42109C4.61958 4.5486 4.87241 3.69481 5.34747 2.963C5.82254 2.23119 6.49949 1.65272 7.29642 1.29757C8.09335 0.942422 8.97612 0.825811 9.83794 0.961845C10.6998 1.09788 11.5037 1.48073 12.1525 2.06408C12.8013 2.64743 13.2671 3.40629 13.4937 4.24884C13.7203 5.0914 13.6978 5.98156 13.4291 6.81163C13.1603 7.6417 12.6568 8.37611 11.9795 8.92603C11.3021 9.47594 10.4799 9.81779 9.61232 9.91022H8.65761C7.55061 9.78906 6.52705 9.2643 5.78249 8.4362C5.03793 7.60809 4.62457 6.53469 4.62138 5.42109H4.61957ZM17.3696 19.8468H0.900363V17.8033C0.902281 15.9508 1.63906 14.1746 2.94902 12.8647C4.25898 11.5547 6.03512 10.8179 7.88769 10.816H8.61232C8.78261 10.8323 8.95653 10.8414 9.13225 10.8414C9.30798 10.8414 9.48008 10.8323 9.65218 10.816H10.3768C12.2306 10.816 14.0086 11.5519 15.3202 12.8621C16.6317 14.1723 17.3695 15.9495 17.3714 17.8033L17.3696 19.8468Z" fill="black"/>
<circle cx="16.2139" cy="17.8443" r="7.1558" fill="#6563FF"/>
<path d="M20.1932 15.2882C20.1391 15.2337 20.0748 15.1904 20.004 15.1609C19.9331 15.1314 19.8571 15.1162 19.7804 15.1162C19.7036 15.1162 19.6276 15.1314 19.5568 15.1609C19.4859 15.1904 19.4216 15.2337 19.3676 15.2882L15.0362 19.6254L13.2164 17.7998C13.1603 17.7456 13.094 17.703 13.0215 17.6744C12.9489 17.6458 12.8713 17.6317 12.7933 17.6331C12.7153 17.6344 12.6383 17.6511 12.5668 17.6822C12.4952 17.7133 12.4305 17.7582 12.3763 17.8144C12.3221 17.8705 12.2795 17.9367 12.2508 18.0093C12.2222 18.0819 12.2082 18.1594 12.2096 18.2374C12.2109 18.3154 12.2276 18.3924 12.2587 18.464C12.2898 18.5355 12.3347 18.6003 12.3908 18.6545L14.6234 20.887C14.6774 20.9415 14.7417 20.9848 14.8126 21.0143C14.8834 21.0438 14.9594 21.059 15.0362 21.059C15.1129 21.059 15.1889 21.0438 15.2598 21.0143C15.3306 20.9848 15.3949 20.9415 15.449 20.887L20.1932 16.1428C20.2522 16.0884 20.2993 16.0223 20.3315 15.9488C20.3637 15.8752 20.3803 15.7958 20.3803 15.7155C20.3803 15.6352 20.3637 15.5558 20.3315 15.4823C20.2993 15.4087 20.2522 15.3426 20.1932 15.2882Z" fill="white"/>
</svg>
