<svg width="30" height="26" viewBox="0 0 30 26" fill="none" xmlns="http://www.w3.org/2000/svg">
<g clip-path="url(#clip0_190_12888)">
<path d="M29.3278 10.4614C28.1038 10.1182 26.7958 9.92578 25.4398 9.92578C18.4798 9.92578 12.8398 14.8138 12.8398 20.8458C12.8398 22.4422 13.2418 23.9554 13.9558 25.323H29.3278V10.4614Z" fill="#FEBECC"/>
<path d="M1.12709 6.51172L1.12109 18.5965V21.1809H9.43109H15.9231H24.2331V18.5965V8.13932V6.51172H1.12709Z" fill="#9BEAF9"/>
<path d="M8.5438 13.1055C6.0838 13.1055 4.0918 14.8319 4.0918 16.9639V18.5967H12.9958V16.9639C12.9958 14.8319 11.0038 13.1055 8.5438 13.1055Z" fill="#E9F4BC"/>
<path d="M5.78906 10.7188C5.78906 9.40323 7.01906 8.33203 8.54306 8.33203C10.0611 8.33203 11.2971 9.39803 11.2971 10.7188C11.2971 12.0344 10.0671 13.1056 8.54306 13.1056C7.02506 13.1056 5.78906 12.0344 5.78906 10.7188Z" fill="white"/>
<path d="M1.12695 18.5938V21.173H24.227H24.233V18.5938H1.12695Z" fill="white"/>
<path d="M15.9236 21.1758H9.43164V23.5834H15.9236V21.1758Z" fill="white"/>
<path d="M28.7218 1.06641V8.13841H21.8218L18.9358 10.6708V8.13841H15.9238V1.06641H28.7218Z" fill="#FF9D9C"/>
<path d="M16.0926 18.2109C15.8406 18.2109 15.6426 18.3825 15.6426 18.5957C15.6426 18.8141 15.8406 18.9909 16.0926 18.9909C16.3386 18.9909 16.5426 18.8141 16.5426 18.5957C16.5426 18.3825 16.3386 18.2109 16.0926 18.2109Z" fill="#505050"/>
<path d="M28.7277 0.675781H15.9237C15.6777 0.675781 15.4737 0.852581 15.4737 1.06578V6.12018H1.12773C0.881734 6.12018 0.677734 6.29698 0.677734 6.51018V21.1742C0.677734 21.2938 0.743734 21.3926 0.833734 21.4654C0.833734 21.4706 0.839734 21.4706 0.839734 21.4706C0.851734 21.481 0.863734 21.481 0.875734 21.4914C0.905734 21.507 0.929734 21.5226 0.959734 21.533C1.01373 21.5538 1.06773 21.5642 1.12773 21.5642H8.98173V23.1866H6.73773C6.49173 23.1866 6.28773 23.3634 6.28773 23.5766C6.28773 23.7898 6.49173 23.9666 6.73773 23.9666H18.6237C18.8697 23.9666 19.0737 23.7898 19.0737 23.5766C19.0737 23.3634 18.8697 23.1866 18.6237 23.1866H16.3797V21.5642H24.2337C24.2937 21.5642 24.3537 21.5538 24.4077 21.533C24.4617 21.5122 24.5157 21.4862 24.5577 21.4498C24.5577 21.4498 24.5577 21.4498 24.5637 21.4498C24.5937 21.4238 24.6117 21.3926 24.6297 21.3614C24.6357 21.3458 24.6537 21.3354 24.6597 21.325C24.6837 21.2782 24.6957 21.2262 24.6957 21.169V8.52258H28.7397C28.9857 8.52258 29.1897 8.34578 29.1897 8.13258V1.06578C29.1777 0.852581 28.9737 0.675781 28.7277 0.675781ZM15.4737 23.1918H9.88173V21.5694H15.4737V23.1918ZM23.7837 18.2102H17.2917C17.0397 18.2102 16.8417 18.3818 16.8417 18.595C16.8417 18.8134 17.0397 18.9902 17.2917 18.9902H23.7837V20.7894H1.57773V18.985L14.8917 18.9902C15.1377 18.9902 15.3417 18.8134 15.3417 18.595C15.3417 18.3818 15.1377 18.2102 14.8917 18.2102H13.4457V16.9622C13.4457 15.1682 12.1557 13.6342 10.3377 13.0102C11.1837 12.511 11.7417 11.6686 11.7417 10.717C11.7417 9.18818 10.3077 7.94018 8.53773 7.94018C6.76773 7.94018 5.33973 9.18818 5.33973 10.717C5.33973 11.6686 5.89773 12.511 6.74373 13.0102C4.92573 13.6342 3.63573 15.1682 3.63573 16.9622V18.2102H1.57773V6.90538H15.4797V8.13778C15.4797 8.35098 15.6837 8.52778 15.9297 8.52778H18.4917V10.6702C18.4917 10.8262 18.5997 10.9718 18.7677 11.029C18.8217 11.0498 18.8817 11.0602 18.9417 11.0602C19.0617 11.0602 19.1757 11.0186 19.2597 10.9458L22.0137 8.52778H23.7837V18.2102ZM6.23973 10.717C6.23973 9.61458 7.27173 8.72018 8.54373 8.72018C9.81573 8.72018 10.8477 9.61458 10.8477 10.717C10.8477 11.8142 9.81573 12.7138 8.54973 12.7138C7.27173 12.7086 6.23973 11.8142 6.23973 10.717ZM8.54373 13.4938C10.7517 13.4938 12.5457 15.0486 12.5457 16.9622V18.205H4.54173V16.9622C4.54173 15.0486 6.33573 13.4938 8.54373 13.4938ZM28.2777 7.74778H21.8217C21.7017 7.74778 21.5877 7.78938 21.5037 7.86218L19.3857 9.71858V8.13258C19.3857 7.91938 19.1817 7.74258 18.9357 7.74258H16.3737V1.45578H28.2717V7.74778H28.2777Z" fill="#505050"/>
<path d="M18.618 3.48703H26.04C26.286 3.48703 26.49 3.31023 26.49 3.09703C26.49 2.88383 26.286 2.70703 26.04 2.70703H18.618C18.372 2.70703 18.168 2.88383 18.168 3.09703C18.168 3.31023 18.366 3.48703 18.618 3.48703Z" fill="#505050"/>
<path d="M18.618 5.08469H26.04C26.286 5.08469 26.49 4.90789 26.49 4.69469C26.49 4.48149 26.286 4.30469 26.04 4.30469H18.618C18.372 4.30469 18.168 4.48149 18.168 4.69469C18.168 4.90789 18.366 5.08469 18.618 5.08469Z" fill="#505050"/>
<path d="M18.618 6.68234H23.376C23.622 6.68234 23.826 6.50554 23.826 6.29234C23.826 6.07914 23.622 5.90234 23.376 5.90234H18.618C18.372 5.90234 18.168 6.07914 18.168 6.29234C18.168 6.50554 18.366 6.68234 18.618 6.68234Z" fill="#505050"/>
</g>
<defs>
<clipPath id="clip0_190_12888">
<rect width="30" height="26" fill="white"/>
</clipPath>
</defs>
</svg>
