<svg width="15" height="20" viewBox="0 0 15 20" fill="none" xmlns="http://www.w3.org/2000/svg">
<path d="M7.27261 15.4769C7.75307 15.4769 8.21384 15.286 8.55358 14.9463C8.89331 14.6065 9.08417 14.1458 9.08417 13.6653C9.08417 13.1848 8.89331 12.7241 8.55358 12.3843C8.21384 12.0446 7.75307 11.8537 7.27261 11.8537C6.79215 11.8537 6.33138 12.0446 5.99164 12.3843C5.65191 12.7241 5.46105 13.1848 5.46105 13.6653C5.46105 14.1458 5.65191 14.6065 5.99164 14.9463C6.33138 15.286 6.79215 15.4769 7.27261 15.4769ZM12.7073 7.32484C13.1877 7.32484 13.6485 7.5157 13.9883 7.85543C14.328 8.19517 14.5189 8.65594 14.5189 9.1364V18.1942C14.5189 18.6747 14.328 19.1354 13.9883 19.4752C13.6485 19.8149 13.1877 20.0058 12.7073 20.0058H1.83793C1.35747 20.0058 0.896694 19.8149 0.556961 19.4752C0.217227 19.1354 0.0263672 18.6747 0.0263672 18.1942V9.1364C0.0263672 8.65594 0.217227 8.19517 0.556961 7.85543C0.896694 7.5157 1.35747 7.32484 1.83793 7.32484H2.74371V5.51328C2.74371 4.31214 3.22086 3.16019 4.07019 2.31086C4.91953 1.46153 6.07147 0.984375 7.27261 0.984375C7.86735 0.984375 8.45627 1.10152 9.00575 1.32912C9.55522 1.55672 10.0545 1.89031 10.475 2.31086C10.8956 2.73141 11.2292 3.23067 11.4568 3.78014C11.6844 4.32961 11.8015 4.91853 11.8015 5.51328V7.32484H12.7073ZM7.27261 2.79594C6.55193 2.79594 5.86076 3.08223 5.35116 3.59183C4.84156 4.10143 4.55527 4.79259 4.55527 5.51328V7.32484H9.98995V5.51328C9.98995 4.79259 9.70366 4.10143 9.19406 3.59183C8.68446 3.08223 7.99329 2.79594 7.27261 2.79594Z" fill="#797979"/>
</svg>
