<svg width="42" height="43" viewBox="0 0 42 43" fill="none" xmlns="http://www.w3.org/2000/svg">
<path d="M5.63642 1.97107C2.83909 1.97107 1.2666 3.41734 1.2666 6.37235V36.8342C1.2666 39.5982 2.68039 41.0454 5.47542 41.0454H36.066C38.8611 41.0454 40.2771 39.6703 40.2771 36.8342V6.37235C40.2771 3.48942 38.8611 1.97107 35.9782 1.97107C35.9782 1.97107 5.62674 1.96146 5.63642 1.97107Z" fill="black"/>
<path d="M34.643 30.9727V10.6152H6.9834V30.9727H34.643Z" stroke="white" stroke-width="2.07457"/>
<path d="M7.24072 10.873L19.1731 22.9643C20.0575 23.8556 21.6668 23.8451 22.5325 22.9725L34.4567 10.9704" stroke="white" stroke-width="2.07457"/>
<path d="M7.64697 30.3053L16.7895 20.959" stroke="white" stroke-width="2.07457"/>
<path d="M33.8681 30.191L24.9722 21.082" stroke="white" stroke-width="2.07457"/>
</svg>
