<svg width="15" height="23" viewBox="0 0 15 23" fill="none" xmlns="http://www.w3.org/2000/svg">
<path fill-rule="evenodd" clip-rule="evenodd" d="M1.14933 8.95996C1.65491 8.95996 2.06477 9.36982 2.06477 9.8754V10.7908C2.06477 13.8243 4.52391 16.2835 7.55742 16.2835C10.5909 16.2835 13.0501 13.8243 13.0501 10.7908V9.8754C13.0501 9.36982 13.4599 8.95996 13.9655 8.95996C14.4711 8.95996 14.8809 9.36982 14.8809 9.8754V10.7908C14.8809 14.5255 12.0855 17.6072 8.47286 18.0577V20.8607H11.2192C11.7248 20.8607 12.1346 21.2706 12.1346 21.7761C12.1346 22.2817 11.7248 22.6916 11.2192 22.6916H8.47286H6.64197H3.89565C3.39007 22.6916 2.98021 22.2817 2.98021 21.7761C2.98021 21.2706 3.39007 20.8607 3.89565 20.8607H6.64197V18.0577C3.02936 17.6072 0.233887 14.5255 0.233887 10.7908V9.8754C0.233887 9.36982 0.643744 8.95996 1.14933 8.95996Z" fill="#6B7C93"/>
<path d="M3.89551 4.38247C3.89551 2.36013 5.53494 0.720703 7.55727 0.720703C9.57961 0.720703 11.219 2.36013 11.219 4.38247V10.7906C11.219 12.8129 9.57961 14.4523 7.55727 14.4523C5.53494 14.4523 3.89551 12.8129 3.89551 10.7906V4.38247Z" fill="#6B7C93"/>
</svg>
