<svg width="20" height="19" viewBox="0 0 20 19" fill="none" xmlns="http://www.w3.org/2000/svg">
<path d="M19.2857 0H0.714286C0.32 0 0 0.327385 0 0.730769C0 1.13415 0.32 1.46154 0.714286 1.46154H18.5714V13.1538H9.28571C9.25643 13.1538 9.23143 13.167 9.20286 13.1707C9.155 13.1765 9.11 13.1838 9.06357 13.1992C9.015 13.2152 8.97286 13.2379 8.93 13.2642C8.90643 13.2781 8.87929 13.2825 8.85714 13.3L4.28571 16.8077V13.8846C4.28571 13.4805 3.96571 13.1538 3.57143 13.1538H1.42857V3.65385C1.42857 3.25046 1.10857 2.92308 0.714286 2.92308C0.32 2.92308 0 3.25046 0 3.65385V13.8846C0 14.2887 0.32 14.6154 0.714286 14.6154H2.85714V18.2692C2.85714 18.5462 3.01 18.799 3.25214 18.9233C3.35286 18.9744 3.46286 19 3.57143 19C3.72286 19 3.87357 18.951 4 18.8538L9.52357 14.6154H19.2857C19.6807 14.6154 20 14.2887 20 13.8846V0.730769C20 0.327385 19.6807 0 19.2857 0Z" fill="white"/>
</svg>
