<svg width="23" height="25" viewBox="0 0 23 25" fill="none" xmlns="http://www.w3.org/2000/svg">
<path d="M15.1822 15.137C15.0197 15.0876 13.9925 14.6568 14.6344 12.8417H14.6252C16.2984 11.2386 17.5771 8.65895 17.5771 6.11925C17.5771 2.21415 14.7856 0.166992 11.5414 0.166992C8.29513 0.166992 5.51903 2.2132 5.51903 6.11925C5.51903 8.6694 6.79055 11.2595 8.474 12.8588C9.1302 14.46 7.9568 15.0543 7.71149 15.138C4.31394 16.2809 0.327637 18.3642 0.327637 20.4208V21.192C0.327637 23.9941 6.16808 24.6312 11.5731 24.6312C16.9863 24.6312 22.7531 23.9941 22.7531 21.192V20.4208C22.7531 18.3024 18.7474 16.2352 15.1822 15.137Z" fill="#797979"/>
</svg>
