<svg width="30" height="26" viewBox="0 0 30 26" fill="none" xmlns="http://www.w3.org/2000/svg">
<path d="M0 5.5C0 2.46243 2.46243 0 5.5 0H24.5C27.5376 0 30 2.46243 30 5.5V12.75C30 19.7916 24.2916 25.5 17.25 25.5H12.75C5.70837 25.5 0 19.7916 0 12.75V5.5Z" fill="#E7C300"/>
<path d="M9.71733 16V8.72727H12.4446C13.0033 8.72727 13.4721 8.82434 13.8509 9.01846C14.232 9.21259 14.5197 9.48485 14.7138 9.83523C14.9103 10.1832 15.0085 10.5893 15.0085 11.0533C15.0085 11.5196 14.9091 11.9245 14.7102 12.2678C14.5137 12.6087 14.2237 12.8726 13.8402 13.0597C13.4567 13.2443 12.9856 13.3366 12.4268 13.3366H10.4844V12.2429H12.2493C12.576 12.2429 12.8435 12.1979 13.0518 12.108C13.2602 12.0156 13.4141 11.8819 13.5135 11.7067C13.6153 11.5291 13.6662 11.3113 13.6662 11.0533C13.6662 10.7952 13.6153 10.575 13.5135 10.3928C13.4117 10.2081 13.2566 10.0684 13.0483 9.97372C12.84 9.87666 12.5713 9.82812 12.2422 9.82812H11.0348V16H9.71733ZM13.4744 12.7045L15.2749 16H13.8047L12.0362 12.7045H13.4744ZM19.1083 8.72727V16H17.7908V10.0092H17.7482L16.0472 11.0959V9.88849L17.8548 8.72727H19.1083Z" fill="white"/>
</svg>
