<svg width="13" height="16" viewBox="0 0 13 16" fill="none" xmlns="http://www.w3.org/2000/svg">
<path d="M11.1346 1.69898e-07H1.16139C1.0304 -7.63091e-05 0.900673 0.0256681 0.779637 0.0757613C0.658602 0.125854 0.548627 0.199314 0.456002 0.291939C0.363376 0.384565 0.289917 0.494539 0.239824 0.615575C0.189731 0.736611 0.163986 0.866333 0.164063 0.997325V14.9599C0.164043 15.1478 0.217096 15.3319 0.317112 15.491C0.417129 15.65 0.560041 15.7776 0.729393 15.859C0.898745 15.9405 1.08765 15.9724 1.27435 15.9512C1.46106 15.9299 1.63797 15.8564 1.78472 15.739L6.14801 12.2474L10.5113 15.739C10.6581 15.8564 10.835 15.9299 11.0217 15.9512C11.2084 15.9724 11.3973 15.9405 11.5666 15.859C11.736 15.7776 11.8789 15.65 11.9789 15.491C12.0789 15.3319 12.132 15.1478 12.132 14.9599V0.997325C12.132 0.866333 12.1063 0.736611 12.0562 0.615575C12.0061 0.494539 11.9326 0.384565 11.84 0.291939C11.7474 0.199314 11.6374 0.125854 11.5164 0.0757613C11.3954 0.0256681 11.2656 -7.63091e-05 11.1346 1.69898e-07ZM10.1373 12.8844L6.77134 10.1914C6.59428 10.0502 6.3745 9.97325 6.14801 9.97325C5.92152 9.97325 2.6751 11.7103 2.49805 11.8516L2.15871 12.8844L4.99805 10.8516L6.99805 11.3516L10.1373 12.8844Z" fill="black"/>
</svg>
