<svg width="28" height="24" viewBox="0 0 28 24" fill="none" xmlns="http://www.w3.org/2000/svg">
<path d="M26.2965 10.4652L26.2876 10.4614L2.76552 0.70511C2.56767 0.622302 2.35238 0.589825 2.13891 0.610586C1.92544 0.631347 1.72045 0.704697 1.54226 0.824076C1.35401 0.94743 1.19938 1.11565 1.09227 1.31361C0.985174 1.51156 0.928967 1.73303 0.928711 1.9581V8.19774C0.928816 8.50542 1.03625 8.80343 1.23251 9.0404C1.42876 9.27737 1.70153 9.43846 2.00381 9.49589L14.8328 11.868C14.8832 11.8776 14.9287 11.9045 14.9614 11.944C14.9942 11.9835 15.0121 12.0332 15.0121 12.0845C15.0121 12.1358 14.9942 12.1855 14.9614 12.225C14.9287 12.2645 14.8832 12.2914 14.8328 12.3009L2.00436 14.6731C1.70217 14.7304 1.42941 14.8913 1.23307 15.128C1.03673 15.3648 0.929096 15.6626 0.928711 15.9701V22.2109C0.928565 22.4258 0.98178 22.6374 1.08358 22.8267C1.18538 23.0159 1.33258 23.177 1.51197 23.2953C1.72776 23.4387 1.98101 23.5153 2.24009 23.5156C2.4202 23.5155 2.59846 23.4794 2.76442 23.4094L26.286 13.7087L26.2965 13.7037C26.6131 13.5677 26.8829 13.3418 27.0724 13.054C27.262 12.7662 27.363 12.4291 27.363 12.0845C27.363 11.7399 27.262 11.4028 27.0724 11.115C26.8829 10.8272 26.6131 10.6013 26.2965 10.4652Z" fill="#777E90"/>
</svg>
