<svg width="12" height="16" viewBox="0 0 12 16" fill="none" xmlns="http://www.w3.org/2000/svg">
<path d="M10.9706 0.5L10.9709 0.5C11.0361 0.499962 11.1008 0.512792 11.1611 0.537757C11.2214 0.562721 11.2762 0.599331 11.3224 0.645493C11.3686 0.691654 11.4052 0.746461 11.4301 0.806782C11.4551 0.867101 11.4679 0.931751 11.4679 0.997033V0.997325V14.9599V14.9599C11.4679 15.0537 11.4414 15.1455 11.3916 15.2248C11.3417 15.3042 11.2704 15.3678 11.1859 15.4084C11.1015 15.449 11.0072 15.465 10.9141 15.4544C10.821 15.4438 10.7327 15.4071 10.6595 15.3486L6.29635 11.857L5.98395 11.607L5.67155 11.857L1.30836 15.3486C1.23516 15.4071 1.14692 15.4438 1.0538 15.4544C0.96067 15.465 0.866448 15.449 0.781978 15.4084C0.697508 15.3678 0.626225 15.3042 0.576339 15.2248C0.526452 15.1455 0.49999 15.0537 0.5 14.9599V14.9599L0.5 0.997325L0.5 0.997033C0.499962 0.931751 0.512792 0.867102 0.537757 0.806782C0.562722 0.746462 0.599331 0.691654 0.645493 0.645493C0.691654 0.599331 0.746462 0.562722 0.806782 0.537757C0.867102 0.512792 0.931751 0.499962 0.997033 0.5H0.997325L10.9706 0.5Z" fill="white" stroke="black"/>
</svg>
