<svg width="30" height="30" viewBox="0 0 30 30" fill="none" xmlns="http://www.w3.org/2000/svg">
<rect x="29.0893" y="28.9506" width="27.7039" height="27.7039" rx="13.852" transform="rotate(-180 29.0893 28.9506)" stroke="#0C0B0B" stroke-width="1.4581"/>
<path d="M15.0722 11.2114L15.0722 10.3313L14.4499 10.9536L11.9636 13.4399C11.899 13.5045 11.7944 13.5045 11.7298 13.4399C11.6653 13.3754 11.6653 13.2707 11.7298 13.2062L15.1206 9.81538C15.1852 9.75081 15.2898 9.75081 15.3544 9.81538L15.6121 9.55762L15.3544 9.81539L18.7451 13.206C18.7451 13.206 18.7451 13.206 18.7451 13.206C18.7775 13.2385 18.7936 13.2802 18.7936 13.323C18.7936 13.3658 18.7775 13.4075 18.7451 13.4399C18.6805 13.5044 18.576 13.5044 18.5114 13.4399L18.5114 13.4399L16.0251 10.9536L15.4028 10.3313L15.4028 11.2114L15.4028 20.2671C15.4028 20.3583 15.3287 20.4324 15.2375 20.4324C15.1462 20.4324 15.0722 20.3583 15.0722 20.2671L15.0722 11.2114Z" fill="#0C0B0B" stroke="#0C0B0B" stroke-width="0.72905"/>
</svg>
